<svg xmlns="http://www.w3.org/2000/svg" width="256" height="256" viewBox="0 0 256 256"><title>boss:ASTROLABE body-only editable production source</title><metadata>schemaVersion=1; sourceCanvas=256x256; fixed root=128,228; logical center=128,142; body only, no shadow/projectile/summon/HUD</metadata><g opacity="1"><path id="moon-shell" transform="matrix(1 0 0 1 0 0)" fill="#F77965" stroke="#4B281C" stroke-width="4.5" stroke-linecap="round" stroke-linejoin="round" d="M136 45 C112 43 66 74 51 111 C36 144 42 179 67 198 C91 218 136 224 170 207 C187 199 201 182 204 164 C206 151 197 146 188 155 C175 173 154 185 134 180 C105 177 90 155 95 129 C99 104 114 75 137 54 C142 49 142 45 136 45 Z"/><path id="shell-highlight" transform="matrix(1 0 0 1 0 0)" fill="#FF9A7A" stroke="none" stroke-width="4.5" stroke-linecap="round" stroke-linejoin="round" d="M114 62 C89 75 66 98 59 117 C56 126 60 131 64 121 C74 97 98 80 117 69 C124 65 122 58 114 62 Z"/><ellipse id="shell-dot" transform="matrix(1 0 0 1 0 0)" fill="#4B281C" stroke="none" stroke-width="4.5" stroke-linecap="round" stroke-linejoin="round" cx="75" cy="167" rx="5.6" ry="6.2"/><path id="shell-line" transform="matrix(1 0 0 1 0 0)" fill="none" stroke="#4B281C" stroke-width="3" stroke-linecap="round" stroke-linejoin="round" d="M84 180 L92 187"/><ellipse id="center-orb" transform="matrix(1 0 0 1 0 0)" fill="#625578" stroke="#4B281C" stroke-width="4.5" stroke-linecap="round" stroke-linejoin="round" cx="144" cy="126" rx="37" ry="37"/><ellipse id="orb-eye-left" transform="matrix(1 0 0 1 0 0)" fill="#FFF9EF" stroke="none" stroke-width="0" stroke-linecap="round" stroke-linejoin="round" cx="135" cy="125" rx="4.2" ry="6.8"/><ellipse id="orb-eye-right" transform="matrix(1 0 0 1 0 0)" fill="#FFF9EF" stroke="none" stroke-width="0" stroke-linecap="round" stroke-linejoin="round" cx="152" cy="125" rx="4.2" ry="6.8"/><ellipse id="orbit-orb" transform="matrix(1 0 0 1 0 0)" fill="#F77965" stroke="#4B281C" stroke-width="4" stroke-linecap="round" stroke-linejoin="round" cx="194" cy="76" rx="15" ry="15"/><ellipse id="orbit-highlight" transform="matrix(1 0 0 1 0 0)" fill="#FF9A7A" stroke="none" stroke-width="4.5" stroke-linecap="round" stroke-linejoin="round" cx="189" cy="70" rx="3.6" ry="4"/></g><circle cx="128" cy="142" r="104" fill="none" stroke="#888888" stroke-width=".8" stroke-dasharray="3 3"/><circle cx="128" cy="228" r="2.2" fill="#216DCA"/><text x="131" y="225" font-family="Arial" font-size="7" fill="#4B281C">R</text><circle cx="128" cy="142" r="2.2" fill="#888888"/><text x="131" y="139" font-family="Arial" font-size="7" fill="#4B281C">C0</text><circle cx="137" cy="48" r="2.2" fill="#20724A"/><text x="140" y="45" font-family="Arial" font-size="7" fill="#4B281C">moon-shell-upper-tip</text><circle cx="201" cy="157" r="2.2" fill="#20724A"/><text x="204" y="154" font-family="Arial" font-size="7" fill="#4B281C">moon-shell-lower-tip</text><circle cx="75" cy="167" r="2.2" fill="#20724A"/><text x="78" y="164" font-family="Arial" font-size="7" fill="#4B281C">shell-dot</text><circle cx="88" cy="183" r="2.2" fill="#20724A"/><text x="91" y="180" font-family="Arial" font-size="7" fill="#4B281C">shell-line</text><circle cx="144" cy="126" r="2.2" fill="#20724A"/><text x="147" y="123" font-family="Arial" font-size="7" fill="#4B281C">center-orb</text><circle cx="135" cy="125" r="2.2" fill="#20724A"/><text x="138" y="122" font-family="Arial" font-size="7" fill="#4B281C">orb-eye-left</text><circle cx="152" cy="125" r="2.2" fill="#20724A"/><text x="155" y="122" font-family="Arial" font-size="7" fill="#4B281C">orb-eye-right</text><circle cx="194" cy="76" r="2.2" fill="#20724A"/><text x="197" y="73" font-family="Arial" font-size="7" fill="#4B281C">orbit-orb</text></svg>