<svg xmlns="http://www.w3.org/2000/svg" width="256" height="256" viewBox="0 0 256 256"><title>enemy:SPLINTER body-only editable production source</title><metadata>schemaVersion=1; sourceCanvas=256x256; fixed root=128,232; logical center=128,165; body only, no shadow/projectile/summon/HUD</metadata><g opacity="1"><path id="body" transform="matrix(0.975 0 0 1.045 3.200000000000003 -10.439999999999984)" fill="#F77965" stroke="#4B281C" stroke-width="4.5" stroke-linecap="round" stroke-linejoin="round" d="M133 31 C143 19 152 29 148 41 C145 54 159 74 168 98 C184 138 169 170 150 182 C126 197 91 181 83 156 C72 120 97 73 133 31 Z"/><ellipse id="eye" transform="matrix(0.975 0 0 1.045 3.200000000000003 -10.439999999999984)" fill="#4B281C" stroke="none" stroke-width="0" stroke-linecap="round" stroke-linejoin="round" cx="146" cy="124" rx="10" ry="14"/><ellipse id="eye-highlight" transform="matrix(0.975 0 0 1.045 3.200000000000003 -10.439999999999984)" fill="#FFF9EF" stroke="none" stroke-width="0" stroke-linecap="round" stroke-linejoin="round" cx="149" cy="118" rx="3.4" ry="4.9"/></g></svg>