<svg xmlns="http://www.w3.org/2000/svg" width="256" height="256" viewBox="0 0 256 256"><title>boss:COLLECTOR body-only editable production source</title><metadata>schemaVersion=1; sourceCanvas=256x256; fixed root=128,234; logical center=128,167.12; body only, no shadow/projectile/summon/HUD</metadata><g opacity="1"><path id="foot-left" transform="matrix(1 0 0 1 0 0)" fill="#F77965" stroke="#4B281C" stroke-width="3.96" stroke-linecap="round" stroke-linejoin="round" d="M 65.52 216.4 C 57.6 226.08 64.64 234 75.2 231.36 C 82.24 230.48 84.88 223.44 84 219.04 Z"/><path id="foot-right" transform="matrix(1 0 0 1 0 0)" fill="#F77965" stroke="#4B281C" stroke-width="3.96" stroke-linecap="round" stroke-linejoin="round" d="M 137.68 219.92 C 137.68 232.24 152.64 235.76 159.68 225.2 L 161.44 218.16 Z"/><path id="bud-left" transform="matrix(0.975 0 0 1.045 3.200000000000003 -10.529999999999983)" fill="#F77965" stroke="#4B281C" stroke-width="3.96" stroke-linecap="round" stroke-linejoin="round" d="M 89.28 100.24 C 86.64 82.64 69.92 86.16 69.04 94.08 C 69.04 101.12 81.36 101.12 83.12 107.28 Z"/><path id="bud-right" transform="matrix(0.975 0 0 1.045 3.200000000000003 -10.529999999999983)" fill="#F77965" stroke="#4B281C" stroke-width="3.96" stroke-linecap="round" stroke-linejoin="round" d="M 111.28 104.64 C 113.04 87.04 128.88 86.16 131.52 93.2 C 135.04 102.88 121.84 103.76 120.08 109.92 Z"/><path id="fat-bag-body" transform="matrix(0.975 0 0 1.045 3.200000000000003 -10.529999999999983)" fill="#F77965" stroke="#4B281C" stroke-width="3.96" stroke-linecap="round" stroke-linejoin="round" d="M 85.76 103.76 C 101.6 94.08 126.24 102.88 135.92 121.36 C 147.36 144.24 161.44 140.72 172 150.4 L 174.64 183.84 C 174.64 212.88 154.4 226.08 127.12 225.2 C 99.84 230.48 58.48 225.2 43.52 209.36 C 28.56 190.88 36.48 164.48 53.2 146 C 65.52 130.16 72.56 122.24 85.76 103.76 Z"/><path id="single-curled-arm" transform="matrix(0.9737815038850921 -0.05222823188785885 0.04872969003891137 1.0436940221127398 -4.447889172453571 -1.9340248873519474)" fill="#F77965" stroke="#4B281C" stroke-width="3.96" stroke-linecap="round" stroke-linejoin="round" d="M 155.28 151.28 C 164.08 155.68 169.36 151.28 171.12 146 C 174.64 138.08 179.92 150.4 179.92 155.68 C 203.68 148.64 198.4 128.4 189.6 120.48 C 179.92 112.56 174.64 120.48 167.6 118.72 C 157.04 113.44 162.32 94.96 173.76 89.68 C 198.4 76.48 219.52 99.36 223.92 125.76 C 230.96 157.44 222.16 179.44 204.56 187.36 C 190.48 194.4 174.64 185.6 168.48 175.92 C 159.68 175.92 154.4 163.6 155.28 151.28 Z"/><path id="arm-inner-curl" transform="matrix(0.9737815038850921 -0.05222823188785885 0.04872969003891137 1.0436940221127398 -4.447889172453571 -1.9340248873519474)" fill="#4B281C" stroke="none" stroke-width="0" stroke-linecap="round" stroke-linejoin="round" d="M 185.2 108.16 C 175.52 110.8 178.16 123.12 185.2 129.28 C 194.88 138.96 194.88 155.68 182.56 160.08 C 192.24 167.12 204.56 155.68 206.32 143.36 C 208.96 126.64 195.76 104.64 185.2 108.16 Z"/><path id="arm-root-fold" transform="matrix(0.9737815038850921 -0.05222823188785885 0.04872969003891137 1.0436940221127398 -4.447889172453571 -1.9340248873519474)" fill="none" stroke="#4B281C" stroke-width="2.64" stroke-linecap="round" stroke-linejoin="round" d="M 164.96 152.16 Q 163.2 162.72 172.88 169.76"/><path id="brow-slot" transform="matrix(0.975 0 0 1.045 3.200000000000003 -10.529999999999983)" fill="#4B281C" stroke="none" stroke-width="0" stroke-linecap="round" stroke-linejoin="round" d="M 88.4 121.36 C 95.44 125.76 109.52 126.64 120.08 122.24 C 125.36 136.32 105.12 141.6 93.68 134.56 C 89.28 131.92 87.52 126.64 88.4 121.36 Z"/><path id="tongue" transform="matrix(0.975 0 0 1.045 3.200000000000003 -10.529999999999983)" fill="#F4ADA0" stroke="#4B281C" stroke-width="2.64" stroke-linecap="round" stroke-linejoin="round" d="M 95.44 132.8 C 100.72 126.64 111.28 130.16 108.64 140.72 C 105.12 153.92 91.04 150.4 92.8 142.48 Z"/><ellipse id="belly-coin" transform="matrix(0.975 0 0 1.045 3.200000000000003 -10.529999999999983)" fill="#F8DDAA" stroke="#4B281C" stroke-width="3.52" stroke-linecap="round" stroke-linejoin="round" cx="107.76" cy="181.2" rx="34.32" ry="29.92"/><path id="coin-inner-edge" transform="matrix(0.975 0 0 1.045 3.200000000000003 -10.529999999999983)" fill="#A97936" stroke="none" stroke-width="3.96" stroke-linecap="round" stroke-linejoin="round" d="M 104.24 163.6 L 116.56 163.6 L 123.6 174.16 L 123.6 190.88 L 114.8 199.68 L 102.48 199.68 L 93.68 190.88 L 93.68 174.16 Z"/><path id="coin-inner-face" transform="matrix(0.975 0 0 1.045 3.200000000000003 -10.529999999999983)" fill="#F5CA75" stroke="none" stroke-width="3.96" stroke-linecap="round" stroke-linejoin="round" d="M 106 167.12 L 114.8 167.12 L 120.08 175.92 L 120.08 189.12 L 113.04 195.28 L 104.24 195.28 L 98.08 188.24 L 98.08 175.92 Z"/><path id="coin-glint" transform="matrix(0.975 0 0 1.045 3.200000000000003 -10.529999999999983)" fill="#FFEAC3" stroke="none" stroke-width="3.96" stroke-linecap="round" stroke-linejoin="round" d="M 85.76 162.72 C 94.56 155.68 98.08 163.6 91.92 169.76 C 84.88 175.92 79.6 169.76 85.76 162.72 Z"/><path id="bag-fold-left" transform="matrix(0.975 0 0 1.045 3.200000000000003 -10.529999999999983)" fill="none" stroke="#4B281C" stroke-width="2.464" stroke-linecap="round" stroke-linejoin="round" d="M 58.48 173.28 Q 54.08 182.96 60.24 188.24"/><path id="bag-fold-upper" transform="matrix(0.975 0 0 1.045 3.200000000000003 -10.529999999999983)" fill="none" stroke="#4B281C" stroke-width="2.464" stroke-linecap="round" stroke-linejoin="round" d="M 71.68 144.24 Q 70.8 150.4 77.84 149.52"/></g></svg>