<svg xmlns="http://www.w3.org/2000/svg" width="256" height="256" viewBox="0 0 256 256"><title>enemy:FAST body-only editable production source</title><metadata>schemaVersion=1; sourceCanvas=256x256; fixed root=128,228; logical center=128,161; body only, no shadow/projectile/summon/HUD</metadata><g opacity="1"><path id="foot-left" transform="matrix(1 0 0 1 0 0)" fill="#F77965" stroke="#4B281C" stroke-width="4.5" stroke-linecap="round" stroke-linejoin="round" d="M90 205 C82 207 68 220 73 225 C81 233 96 220 106 210 Z"/><path id="foot-right" transform="matrix(1 0 0 1 0 0)" fill="#F77965" stroke="#4B281C" stroke-width="4.5" stroke-linecap="round" stroke-linejoin="round" d="M169 204 C159 211 160 226 170 226 C181 227 184 216 190 207 Z"/><path id="ear-far" transform="matrix(0.975 0 0 1.045 3.200000000000003 -10.259999999999984)" fill="#F77965" stroke="#4B281C" stroke-width="4.5" stroke-linecap="round" stroke-linejoin="round" d="M169 124 C158 84 128 50 91 39 C75 34 65 42 68 52 C73 68 119 77 148 125 Z"/><path id="ear-near" transform="matrix(0.975 0 0 1.045 3.200000000000003 -10.259999999999984)" fill="#F77965" stroke="#4B281C" stroke-width="4.5" stroke-linecap="round" stroke-linejoin="round" d="M134 134 C102 108 56 119 33 112 C16 107 17 94 33 89 C66 77 112 81 157 124 Z"/><path id="body" transform="matrix(0.975 0 0 1.045 3.200000000000003 -10.259999999999984)" fill="#F77965" stroke="#4B281C" stroke-width="4.5" stroke-linecap="round" stroke-linejoin="round" d="M81 162 C103 137 127 121 161 126 C187 125 211 137 226 153 C243 175 229 196 207 204 C172 218 116 219 85 209 C67 199 66 177 81 162 Z"/><path id="side-flap" transform="matrix(0.975 0 0 1.045 3.200000000000003 -10.259999999999984)" fill="#F77965" stroke="#4B281C" stroke-width="4.5" stroke-linecap="round" stroke-linejoin="round" d="M86 165 C72 157 58 163 55 176 C50 192 63 201 77 197 C83 195 87 193 89 189"/><ellipse id="eye-left" transform="matrix(0.975 0 0 1.045 3.200000000000003 -10.259999999999984)" fill="#4B281C" stroke="none" stroke-width="0" stroke-linecap="round" stroke-linejoin="round" cx="181" cy="171" rx="5.9" ry="10.8"/><ellipse id="eye-right" transform="matrix(0.975 0 0 1.045 3.200000000000003 -10.259999999999984)" fill="#4B281C" stroke="none" stroke-width="0" stroke-linecap="round" stroke-linejoin="round" cx="210" cy="165" rx="5.4" ry="10.8"/><ellipse id="mouth" transform="matrix(0.975 0 0 1.045 3.200000000000003 -10.259999999999984)" fill="#4B281C" stroke="none" stroke-width="0" stroke-linecap="round" stroke-linejoin="round" cx="199" cy="187" rx="7.4" ry="5"/></g></svg>