<svg xmlns="http://www.w3.org/2000/svg" width="64" height="64" viewBox="12.75 21.75 230.5 230.5"><title>enemy:JAMMER body-only editable production source</title><metadata>schemaVersion=1; sourceCanvas=256x256; fixed root=128,232; logical center=128,154; body only, no shadow/projectile/summon/HUD</metadata><g opacity="1"><path id="antenna-left" transform="matrix(1 0 0 1 0 0)" opacity="1" fill-opacity="1" stroke-opacity="1" fill="#F77965" stroke="#4B281C" stroke-width="4.5" stroke-linecap="round" stroke-linejoin="round" d="M117 117 C105 82 101 68 87 67 C68 67 63 98 49 115 C43 122 33 120 29 113 C21 100 32 91 42 80 C57 65 68 46 86 45 C108 42 123 72 132 109 Z"/><path id="antenna-right" transform="matrix(1 0 0 1 0 0)" opacity="1" fill-opacity="1" stroke-opacity="1" fill="#F77965" stroke="#4B281C" stroke-width="4.5" stroke-linecap="round" stroke-linejoin="round" d="M139 117 C151 82 155 68 169 67 C188 67 193 98 207 115 C213 122 223 120 227 113 C235 100 224 91 214 80 C199 65 188 46 170 45 C148 42 133 72 124 109 Z"/><path id="body" transform="matrix(1 0 0 1 0 0)" opacity="1" fill-opacity="1" stroke-opacity="1" fill="#F77965" stroke="#4B281C" stroke-width="4.5" stroke-linecap="round" stroke-linejoin="round" d="M65 184 C62 150 77 117 101 108 C119 100 139 101 155 108 C181 122 194 150 191 185 C207 195 212 210 197 214 C188 217 181 212 180 208 C178 229 155 232 150 215 C132 220 117 219 107 216 C101 232 78 230 77 210 C69 218 54 215 52 207 C49 199 54 189 65 184 Z"/><path id="eye-slot-left" transform="matrix(1 0 0 1 0 0)" opacity="1" fill-opacity="1" stroke-opacity="1" fill="none" stroke="#4B281C" stroke-width="4.3" stroke-linecap="round" stroke-linejoin="round" d="M105 146 C103 160 116 160 116 146"/><path id="eye-slot-right" transform="matrix(1 0 0 1 0 0)" opacity="1" fill-opacity="1" stroke-opacity="1" fill="none" stroke="#4B281C" stroke-width="4.3" stroke-linecap="round" stroke-linejoin="round" d="M141 146 C141 160 154 160 152 146"/><path id="zigzag-mouth" transform="matrix(1 0 0 1 0 0)" opacity="1" fill-opacity="1" stroke-opacity="1" fill="none" stroke="#4B281C" stroke-width="4.2" stroke-linecap="round" stroke-linejoin="round" d="M107 179 L118 165 L129 179 L140 165 L151 179"/><path id="base-left-fold" transform="matrix(1 0 0 1 0 0)" opacity="1" fill-opacity="1" stroke-opacity="1" fill="none" stroke="#4B281C" stroke-width="3.6" stroke-linecap="round" stroke-linejoin="round" d="M71 204 L77 210"/><path id="base-right-fold" transform="matrix(1 0 0 1 0 0)" opacity="1" fill-opacity="1" stroke-opacity="1" fill="none" stroke="#4B281C" stroke-width="3.6" stroke-linecap="round" stroke-linejoin="round" d="M185 204 L180 210"/></g></svg>