<svg xmlns="http://www.w3.org/2000/svg" width="672" height="350"><rect width="100%" height="100%" fill="#FFF9EF"/><text x="12" y="24" font-size="16" font-family="sans-serif" fill="#4B281C">SPLINTER corrected: neutral/action alpha bottom both y=226; root y=232</text><g transform="translate(32,40)"><g opacity="1"><path id="body" transform="matrix(1 0 0 1 0 0)" fill="#F77965" stroke="#4B281C" stroke-width="4.5" stroke-linecap="round" stroke-linejoin="round" d="M133 68 C143 56 152 66 148 78 C145 91 159 111 168 135 C184 175 169 207 150 219 C126 234 91 218 83 193 C72 157 97 110 133 68 Z"/><ellipse id="eye" transform="matrix(1 0 0 1 0 0)" fill="#4B281C" stroke="none" stroke-width="0" stroke-linecap="round" stroke-linejoin="round" cx="146" cy="161" rx="10" ry="14"/><ellipse id="eye-highlight" transform="matrix(1 0 0 1 0 0)" fill="#FFF9EF" stroke="none" stroke-width="0" stroke-linecap="round" stroke-linejoin="round" cx="149" cy="155" rx="3.4" ry="4.9"/></g><path d="M24 226 L232 226" fill="none" stroke="#AA7160" stroke-dasharray="4 4"/><path d="M24 232 L232 232 M128 225 L128 240" fill="none" stroke="#52997B" stroke-width="1.5"/></g><text x="55" y="322" font-size="16" font-family="sans-serif" fill="#4B281C">neutral: lower contour retained</text><g transform="translate(352,40)"><g opacity="1"><path id="body" transform="matrix(0.975 0 0 1.045 3.200000000000003 -10.439999999999984)" fill="#F77965" stroke="#4B281C" stroke-width="4.5" stroke-linecap="round" stroke-linejoin="round" d="M133 31 C143 19 152 29 148 41 C145 66 159 97 168 135 C184 175 169 207 150 219 C126 234 91 218 83 193 C72 157 97 90 133 31 Z"/><ellipse id="eye" transform="matrix(0.975 0 0 1.045 3.200000000000003 -10.439999999999984)" fill="#4B281C" stroke="none" stroke-width="0" stroke-linecap="round" stroke-linejoin="round" cx="146" cy="161" rx="10" ry="14"/><ellipse id="eye-highlight" transform="matrix(0.975 0 0 1.045 3.200000000000003 -10.439999999999984)" fill="#FFF9EF" stroke="none" stroke-width="0" stroke-linecap="round" stroke-linejoin="round" cx="149" cy="155" rx="3.4" ry="4.9"/></g><path d="M24 226 L232 226" fill="none" stroke="#AA7160" stroke-dasharray="4 4"/><path d="M24 232 L232 232 M128 225 L128 240" fill="none" stroke="#52997B" stroke-width="1.5"/></g><text x="375" y="322" font-size="16" font-family="sans-serif" fill="#4B281C">action: lower contour retained</text></svg>